<?xml version="1.0" standalone="no"?>
<!DOCTYPE svg PUBLIC "-//W3C//DTD SVG 20010904//EN"
 "http://www.w3.org/TR/2001/REC-SVG-20010904/DTD/svg10.dtd">
<svg version="1.0" xmlns="http://www.w3.org/2000/svg"
 width="512.000000pt" height="512.000000pt" viewBox="0 0 512.000000 512.000000"
 preserveAspectRatio="xMidYMid meet">

<g transform="translate(0.000000,512.000000) scale(0.100000,-0.100000)"
fill="#000000" stroke="none">
<path d="M2321 5109 c-486 -43 -989 -249 -1376 -564 -114 -92 -294 -274 -384
-387 -229 -287 -417 -675 -495 -1023 -49 -218 -60 -325 -60 -575 0 -250 11
-357 60 -575 79 -355 272 -749 509 -1040 92 -114 274 -294 387 -384 287 -229
675 -417 1023 -495 218 -49 325 -60 575 -60 250 0 357 11 575 60 261 58 603
204 828 353 389 259 688 599 893 1016 165 337 246 658 261 1033 34 880 -399
1724 -1139 2221 -477 320 -1074 472 -1657 420z m579 -234 c243 -37 470 -109
695 -220 256 -126 448 -267 650 -476 180 -188 300 -359 415 -594 567 -1159 88
-2553 -1075 -3125 -650 -320 -1406 -318 -2060 5 -256 126 -448 267 -650 476
-341 355 -555 790 -632 1289 -24 159 -24 501 0 660 76 494 289 930 625 1281
201 210 390 350 649 480 268 135 528 208 868 243 82 8 414 -4 515 -19z"/>
<path d="M2450 3145 l0 -475 -475 0 -475 0 0 -110 0 -110 475 0 475 0 0 -480
0 -481 108 3 107 3 3 478 2 477 480 0 480 0 0 110 0 110 -480 0 -480 0 0 475
0 475 -110 0 -110 0 0 -475z"/>
</g>
</svg>
