<?xml version="1.0" standalone="no"?>
<!DOCTYPE svg PUBLIC "-//W3C//DTD SVG 20010904//EN"
 "http://www.w3.org/TR/2001/REC-SVG-20010904/DTD/svg10.dtd">
<svg version="1.0" xmlns="http://www.w3.org/2000/svg"
 width="512.000000pt" height="512.000000pt" viewBox="0 0 512.000000 512.000000"
 preserveAspectRatio="xMidYMid meet">

<g transform="translate(0.000000,512.000000) scale(0.100000,-0.100000)"
fill="#000000" stroke="none">
<path d="M925 4790 c-104 -22 -207 -80 -271 -154 -50 -57 -101 -168 -114 -246
-5 -37 -10 -241 -10 -467 l0 -403 -93 0 c-59 0 -111 -6 -140 -16 -62 -21 -135
-87 -163 -149 l-24 -50 0 -585 0 -585 24 -50 c28 -62 101 -128 163 -149 29
-10 81 -16 139 -16 l93 0 3 -392 c3 -444 2 -435 85 -561 48 -73 113 -131 186
-166 l44 -22 6 -107 c3 -62 12 -127 22 -154 23 -65 85 -132 153 -165 l57 -28
410 0 410 0 49 24 c117 58 168 143 176 296 l5 100 425 0 425 0 5 -100 c8 -153
59 -238 176 -296 49 -24 49 -24 437 -27 433 -3 458 0 539 61 88 67 128 165
128 313 l0 82 57 28 c105 53 201 170 247 304 13 38 16 107 16 428 l0 382 93 0
c59 0 111 6 140 16 62 21 135 87 163 149 l24 50 0 585 0 585 -24 50 c-28 62
-101 128 -163 149 -29 10 -81 16 -140 16 l-93 0 0 398 c0 218 -5 429 -10 467
-26 175 -141 319 -309 384 l-66 26 -1620 1 c-891 1 -1638 -2 -1660 -6z m3304
-235 c29 -16 66 -45 82 -64 52 -63 59 -104 59 -333 l0 -208 -1810 0 -1810 0 0
209 c0 226 6 261 56 326 32 43 83 75 144 91 35 10 400 12 1635 11 l1590 -2 54
-30z m141 -1675 l0 -850 -1810 0 -1810 0 0 850 0 850 1810 0 1810 0 0 -850z
m-3840 -160 l0 -590 -80 0 c-73 0 -83 3 -105 25 l-25 24 0 541 0 541 25 24
c22 22 32 25 105 25 l80 0 0 -590z m4245 565 l25 -24 0 -541 0 -541 -25 -24
c-22 -22 -32 -25 -105 -25 l-80 0 0 590 0 590 80 0 c73 0 83 -3 105 -25z
m-405 -1525 l0 -50 -223 0 c-242 0 -304 -9 -375 -54 -87 -55 -134 -138 -140
-251 -5 -106 20 -176 88 -245 82 -81 120 -90 376 -90 168 0 215 -3 212 -12 -6
-19 -95 -76 -136 -88 -52 -14 -3158 -14 -3215 1 -43 11 -137 72 -137 89 0 6
78 10 210 10 249 0 289 10 370 90 68 69 93 139 88 245 -6 113 -53 196 -140
251 -71 45 -133 54 -375 54 l-223 0 0 50 0 50 1810 0 1810 0 0 -50z m-3139
-280 c42 -23 60 -94 37 -145 -23 -50 -47 -55 -293 -55 l-225 0 0 105 0 105
231 0 c139 0 238 -4 250 -10z m3139 -95 l0 -105 -225 0 c-242 0 -266 4 -291
51 -25 50 -9 123 33 148 11 6 111 11 251 11 l232 0 0 -105z m-2450 -710 c0
-68 -2 -77 -29 -107 l-29 -33 -339 -3 c-186 -2 -353 0 -372 3 -18 4 -44 17
-57 30 -21 21 -24 33 -24 105 l0 80 425 0 425 0 0 -75z m2130 -5 c0 -72 -3
-84 -24 -105 -13 -13 -39 -26 -57 -30 -19 -3 -186 -5 -372 -3 l-339 3 -29 33
c-27 30 -29 39 -29 107 l0 75 425 0 425 0 0 -80z"/>
<path d="M1863 4358 c-12 -6 -29 -26 -39 -46 -19 -41 -8 -96 27 -128 20 -18
46 -19 709 -19 663 0 689 1 709 19 12 11 26 36 32 56 14 46 -8 101 -47 119
-34 15 -1359 15 -1391 -1z"/>
<path d="M1739 1461 c-23 -23 -29 -38 -29 -71 0 -52 13 -76 50 -95 44 -23
1556 -23 1600 0 37 19 50 43 50 95 0 33 -6 48 -29 71 l-29 29 -792 0 -792 0
-29 -29z"/>
</g>
</svg>
