<?xml version="1.0" standalone="no"?>
<!DOCTYPE svg PUBLIC "-//W3C//DTD SVG 20010904//EN"
 "http://www.w3.org/TR/2001/REC-SVG-20010904/DTD/svg10.dtd">
<svg version="1.0" xmlns="http://www.w3.org/2000/svg"
 width="512.000000pt" height="512.000000pt" viewBox="0 0 512.000000 512.000000"
 preserveAspectRatio="xMidYMid meet">

<g transform="translate(0.000000,512.000000) scale(0.100000,-0.100000)"
fill="#000000" stroke="none">
<path d="M810 4069 c-313 -81 -552 -333 -615 -648 -21 -100 -16 -282 9 -376 9
-33 39 -107 68 -164 40 -81 68 -121 131 -187 85 -90 193 -168 283 -204 l54
-22 0 -1069 0 -1068 -259 -3 c-238 -3 -261 -5 -280 -22 -27 -25 -28 -79 -1
-106 20 -20 33 -20 2360 -20 2327 0 2340 0 2360 20 25 25 26 71 1 101 -18 23
-27 24 -151 27 -119 3 -131 5 -124 20 4 9 10 85 12 168 l4 151 54 26 c101 50
177 139 208 246 14 49 16 191 16 1296 0 1217 0 1242 -20 1301 -40 117 -143
219 -260 254 -64 20 -90 20 -1180 18 l-1115 -3 -65 -31 c-73 -35 -144 -99
-183 -165 -59 -100 -57 -52 -57 -1379 0 -1322 -2 -1279 55 -1376 35 -60 111
-130 172 -160 l53 -26 0 -117 c0 -66 6 -139 14 -169 l13 -52 -548 0 -549 0 0
1070 c0 873 2 1070 13 1070 26 0 173 78 234 124 263 199 385 542 308 863 -25
102 -104 257 -174 339 -112 133 -275 234 -441 274 -115 27 -294 27 -400 -1z
m369 -145 c345 -78 577 -442 507 -794 -66 -328 -342 -554 -676 -554 -195 1
-339 62 -480 203 -140 140 -200 286 -200 480 0 121 19 203 72 311 34 68 59
102 128 170 179 180 397 241 649 184z m3461 -285 c60 -27 98 -64 126 -124 l24
-50 0 -1235 0 -1235 -24 -50 c-26 -57 -70 -99 -133 -127 -40 -17 -89 -18
-1140 -16 -1055 3 -1099 4 -1136 22 -49 24 -92 67 -120 120 l-22 41 0 1245 0
1245 29 53 c32 57 79 98 135 118 28 10 265 13 1126 13 1075 1 1091 0 1135 -20z
m-3520 -2261 l0 -1048 -115 0 -115 0 0 1048 0 1048 115 0 115 -1 0 -1047z
m1790 -843 c0 -190 -15 -205 -208 -205 -195 0 -212 17 -212 210 l0 110 210 0
210 0 0 -115z m1040 -19 c0 -74 4 -146 10 -160 l10 -26 -466 0 -466 0 7 23 c4
12 10 84 12 160 l5 137 444 0 444 0 0 -134z m560 8 l0 -126 -34 -34 -34 -34
-132 0 c-200 0 -209 9 -210 193 l0 127 205 0 205 0 0 -126z"/>
<path d="M2462 3317 l-22 -23 0 -735 0 -736 23 -21 23 -22 1016 0 c985 0 1016
1 1039 19 l24 19 0 742 0 742 -24 19 c-23 18 -54 19 -1040 19 l-1018 0 -21
-23z m1958 -757 l0 -630 -915 0 -915 0 0 630 0 630 915 0 915 0 0 -630z"/>
<path d="M2705 1535 c-128 -47 -198 -189 -160 -320 20 -72 97 -154 161 -173
64 -19 148 -15 199 9 86 41 155 147 155 239 0 85 -57 180 -136 226 -56 33
-158 42 -219 19z m151 -154 c63 -38 70 -128 13 -175 -60 -51 -142 -32 -176 39
-14 29 -14 41 -4 75 21 72 102 101 167 61z"/>
<path d="M4105 1527 c-103 -49 -155 -128 -155 -237 0 -152 108 -260 260 -260
230 0 346 272 187 438 -47 50 -103 74 -177 79 -53 3 -74 0 -115 -20z m181
-161 c26 -26 34 -42 34 -70 0 -63 -28 -99 -92 -119 -28 -9 -86 12 -108 40 -13
17 -20 41 -20 70 0 38 5 50 34 79 28 28 42 34 76 34 34 0 48 -6 76 -34z"/>
</g>
</svg>
