<?xml version="1.0" standalone="no"?>
<!DOCTYPE svg PUBLIC "-//W3C//DTD SVG 20010904//EN"
 "http://www.w3.org/TR/2001/REC-SVG-20010904/DTD/svg10.dtd">
<svg version="1.0" xmlns="http://www.w3.org/2000/svg"
 width="512.000000pt" height="512.000000pt" viewBox="0 0 512.000000 512.000000"
 preserveAspectRatio="xMidYMid meet">

<g transform="translate(0.000000,512.000000) scale(0.100000,-0.100000)"
fill="#000000" stroke="none">
<path d="M2365 5113 c-591 -50 -1132 -288 -1550 -682 -44 -42 -187 -188 -318
-326 -131 -137 -243 -251 -248 -253 -5 -2 -9 150 -9 387 l0 391 -120 0 -120 0
0 -610 0 -610 610 0 610 0 0 125 0 125 -406 0 -405 0 274 288 c350 365 444
448 667 587 358 222 769 337 1205 337 264 1 489 -34 725 -112 857 -282 1464
-1023 1580 -1930 16 -122 16 -418 0 -540 -85 -670 -434 -1250 -980 -1632 -303
-212 -666 -349 -1050 -398 -122 -16 -418 -16 -540 0 -1064 136 -1875 935
-2025 1995 -8 55 -15 129 -15 165 0 36 -3 82 -6 102 l-7 38 -118 0 -119 0 0
-52 c0 -29 5 -103 10 -163 44 -500 226 -960 538 -1365 84 -109 323 -348 432
-432 276 -213 580 -366 897 -453 791 -217 1606 -54 2263 453 109 84 348 323
432 432 213 276 366 580 453 897 217 791 54 1606 -453 2263 -84 109 -323 348
-432 432 -405 312 -865 494 -1365 538 -103 9 -320 11 -410 3z"/>
<path d="M2440 3262 l0 -877 480 -480 480 -480 87 88 88 87 -448 448 -447 447
0 823 0 822 -120 0 -120 0 0 -878z"/>
</g>
</svg>
