<?xml version="1.0" standalone="no"?>
<!DOCTYPE svg PUBLIC "-//W3C//DTD SVG 20010904//EN"
 "http://www.w3.org/TR/2001/REC-SVG-20010904/DTD/svg10.dtd">
<svg version="1.0" xmlns="http://www.w3.org/2000/svg"
 width="512.000000pt" height="512.000000pt" viewBox="0 0 512.000000 512.000000"
 preserveAspectRatio="xMidYMid meet">

<g transform="translate(0.000000,512.000000) scale(0.100000,-0.100000)"
fill="#000000" stroke="none">
<path d="M564 4791 c-47 -12 -133 -62 -160 -94 -14 -17 -37 -53 -52 -81 l-27
-51 0 -2005 0 -2005 27 -51 c40 -76 70 -107 140 -145 l63 -34 2005 0 2005 0
52 27 c66 35 116 85 151 151 l27 52 0 2005 0 2005 -34 63 c-38 70 -69 100
-145 140 l-51 27 -1985 2 c-1092 0 -1999 -2 -2016 -6z m3916 -2231 l0 -1920
-1920 0 -1920 0 0 1920 0 1920 1920 0 1920 0 0 -1920z"/>
<path d="M1375 3506 c-66 -29 -105 -106 -91 -179 9 -47 60 -104 104 -117 26
-8 393 -10 1194 -8 1150 3 1157 3 1184 24 44 32 66 68 71 116 7 58 -15 108
-63 144 l-37 29 -1166 2 c-954 2 -1172 0 -1196 -11z"/>
<path d="M1375 2706 c-66 -29 -105 -106 -91 -179 9 -47 60 -104 104 -117 26
-8 393 -10 1194 -8 1150 3 1157 3 1184 24 44 32 66 68 71 116 7 58 -15 108
-63 144 l-37 29 -1166 2 c-954 2 -1172 0 -1196 -11z"/>
<path d="M1375 1906 c-66 -29 -105 -106 -91 -179 9 -47 60 -104 104 -117 25
-8 276 -10 794 -8 746 3 757 3 784 24 44 32 66 68 71 116 7 58 -15 108 -63
144 l-37 29 -766 2 c-622 2 -772 0 -796 -11z"/>
</g>
</svg>
