<?xml version="1.0" standalone="no"?>
<!DOCTYPE svg PUBLIC "-//W3C//DTD SVG 20010904//EN"
 "http://www.w3.org/TR/2001/REC-SVG-20010904/DTD/svg10.dtd">
<svg version="1.0" xmlns="http://www.w3.org/2000/svg"
 width="512.000000pt" height="512.000000pt" viewBox="0 0 512.000000 512.000000"
 preserveAspectRatio="xMidYMid meet">

<g transform="translate(0.000000,512.000000) scale(0.100000,-0.100000)"
fill="#000000" stroke="none">
<path d="M3575 4470 c-27 -10 -33 -18 -190 -230 -75 -102 -140 -186 -143 -187
-4 -1 -65 75 -137 170 -71 94 -140 182 -152 194 -25 26 -79 31 -105 11 -9 -7
-73 -88 -142 -180 -70 -92 -130 -169 -135 -172 -4 -3 -73 79 -152 182 -149
193 -171 213 -220 194 -16 -6 -85 -85 -175 -200 -82 -105 -152 -190 -156 -189
-4 1 -70 85 -148 187 -78 102 -148 191 -157 198 -27 20 -72 14 -98 -13 l-25
-24 0 -1844 c0 -1819 0 -1844 20 -1864 26 -29 56 -37 88 -24 17 7 75 75 149
174 68 89 133 175 146 191 l24 29 152 -199 c85 -112 164 -205 179 -212 49 -24
71 -5 227 198 110 143 150 189 159 180 6 -6 72 -90 146 -188 74 -97 147 -183
162 -191 47 -27 75 -2 228 199 78 102 145 186 148 187 4 1 68 -79 142 -177 83
-110 145 -184 162 -191 32 -13 61 -5 88 24 20 20 20 45 20 1868 l0 1848 -22
25 c-27 29 -55 38 -83 26z m-1210 -405 c75 -99 144 -186 153 -192 17 -14 60
-17 86 -7 9 3 77 87 153 185 95 125 140 176 147 169 6 -6 71 -90 146 -187 74
-98 147 -184 162 -192 46 -26 76 -2 198 163 l110 150 0 -1577 c0 -867 -2
-1577 -5 -1577 -2 0 -39 46 -81 103 -111 147 -121 157 -165 157 -44 0 -56 -13
-234 -248 -59 -78 -111 -142 -114 -141 -3 0 -71 86 -151 191 -82 108 -154 194
-168 199 -50 19 -69 3 -220 -197 -81 -106 -149 -193 -153 -193 -3 -1 -72 87
-154 195 -82 108 -157 200 -167 205 -24 13 -71 11 -90 -3 -8 -7 -59 -70 -112
-140 -54 -71 -99 -128 -102 -128 -2 0 -4 707 -4 1571 l0 1571 87 -113 c124
-164 140 -179 184 -179 37 0 41 4 195 200 87 110 159 199 160 197 1 -1 63 -83
139 -182z"/>
<path d="M2021 3254 c-28 -35 -26 -67 3 -101 l24 -28 512 0 512 0 24 28 c29
34 31 66 3 101 l-20 26 -519 0 -519 0 -20 -26z"/>
<path d="M2021 2614 c-28 -35 -26 -67 3 -101 l24 -28 512 0 512 0 24 28 c29
34 31 66 3 101 l-20 26 -519 0 -519 0 -20 -26z"/>
<path d="M2021 1974 c-28 -35 -26 -67 3 -101 l24 -28 512 0 512 0 24 28 c29
34 31 66 3 101 l-20 26 -519 0 -519 0 -20 -26z"/>
</g>
</svg>
