<?xml version="1.0" standalone="no"?>
<!DOCTYPE svg PUBLIC "-//W3C//DTD SVG 20010904//EN"
 "http://www.w3.org/TR/2001/REC-SVG-20010904/DTD/svg10.dtd">
<svg version="1.0" xmlns="http://www.w3.org/2000/svg"
 width="512.000000pt" height="512.000000pt" viewBox="0 0 512.000000 512.000000"
 preserveAspectRatio="xMidYMid meet">

<g transform="translate(0.000000,512.000000) scale(0.100000,-0.100000)"
fill="#000000" stroke="none">
<path d="M2390 5114 c-304 -44 -515 -143 -717 -337 -264 -254 -397 -583 -380
-942 12 -260 85 -472 231 -670 126 -171 328 -335 508 -412 331 -140 717 -130
1033 27 137 67 206 117 319 227 271 266 402 621 366 994 -24 256 -106 458
-265 656 -197 246 -465 403 -768 447 -94 14 -261 19 -327 10z m305 -309 c180
-32 321 -104 462 -239 154 -147 248 -311 284 -497 7 -35 12 -122 12 -194 -1
-105 -6 -149 -26 -226 -85 -326 -355 -591 -683 -670 -133 -32 -324 -30 -458 5
-171 44 -306 126 -436 262 -121 128 -189 246 -232 403 -31 112 -31 363 0 476
71 259 255 481 497 602 169 84 379 113 580 78z"/>
<path d="M1419 2640 c-91 -11 -208 -44 -294 -84 -430 -199 -675 -737 -702
-1540 -11 -337 36 -521 177 -697 111 -139 280 -244 465 -291 l90 -23 1400 0
1400 0 94 24 c114 28 265 102 345 169 125 103 221 258 268 427 21 74 22 100
22 340 -1 208 -6 288 -22 402 -45 302 -98 490 -197 688 -115 233 -256 387
-433 478 -147 75 -275 108 -426 111 -108 1 -120 -4 -339 -145 -269 -174 -464
-240 -712 -240 -138 0 -231 16 -378 67 -131 46 -150 56 -347 182 -222 143
-247 151 -411 132z m268 -396 c188 -121 264 -158 431 -214 155 -51 276 -71
437 -71 146 0 228 10 360 46 187 51 303 105 504 235 179 115 164 109 245 99
154 -19 263 -73 371 -183 165 -168 268 -422 325 -803 29 -196 38 -522 16 -622
-44 -206 -174 -345 -381 -407 -56 -17 -142 -19 -1399 -21 -1495 -4 -1439 -6
-1586 64 -95 46 -184 132 -228 223 -52 106 -66 204 -58 422 21 627 191 1075
471 1243 67 40 169 74 254 85 31 4 60 8 64 9 4 0 82 -47 174 -105z"/>
</g>
</svg>
