<?xml version="1.0" standalone="no"?>
<!DOCTYPE svg PUBLIC "-//W3C//DTD SVG 20010904//EN"
 "http://www.w3.org/TR/2001/REC-SVG-20010904/DTD/svg10.dtd">
<svg version="1.0" xmlns="http://www.w3.org/2000/svg"
 width="512.000000pt" height="512.000000pt" viewBox="0 0 512.000000 512.000000"
 preserveAspectRatio="xMidYMid meet">

<g transform="translate(0.000000,512.000000) scale(0.100000,-0.100000)"
fill="#000000" stroke="none">
<path d="M815 4560 c-167 -19 -326 -112 -422 -247 -52 -73 -99 -185 -108 -260
-7 -46 -12 -54 -56 -87 -96 -72 -175 -197 -210 -334 -18 -72 -19 -122 -19
-1301 0 -1359 -2 -1300 66 -1441 28 -57 57 -94 118 -155 87 -86 160 -129 277
-162 61 -17 151 -18 1784 -18 1901 0 1763 -5 1914 67 163 78 295 250 324 425
12 68 14 72 65 112 129 102 221 289 222 449 l0 52 69 0 c59 0 79 5 132 32 69
36 120 99 139 169 7 25 10 195 8 487 -3 439 -3 448 -25 488 -54 102 -128 149
-250 160 l-73 7 0 513 c0 338 -4 531 -11 566 -16 76 -72 193 -122 253 -83 101
-169 161 -292 203 l-80 27 -1695 1 c-932 1 -1722 -2 -1755 -6z m3508 -242
c114 -54 204 -168 227 -289 6 -29 10 -264 10 -540 l0 -489 -35 0 -35 0 0 291
c0 327 -5 362 -68 484 -52 101 -164 211 -264 259 -147 70 -31 66 -1928 64
-1194 -2 -1710 0 -1710 8 0 39 114 165 181 200 86 44 25 43 1839 41 l1725 -2
58 -27z m-361 -439 c121 -26 227 -108 281 -218 l32 -66 3 -297 3 -297 -598 -4
c-534 -3 -604 -5 -658 -21 -309 -91 -505 -351 -505 -670 0 -193 55 -331 180
-456 80 -81 150 -123 265 -161 70 -24 71 -24 693 -27 l623 -3 -3 -297 -3 -297
-32 -67 c-40 -85 -106 -151 -191 -191 l-67 -32 -1740 0 -1740 0 -57 27 c-112
52 -202 165 -227 286 -15 71 -16 2395 -1 2473 29 151 153 284 297 318 59 14
3380 14 3445 0z m928 -1119 c19 -19 20 -33 20 -435 0 -404 -1 -416 -20 -435
-20 -20 -27 -21 -923 -18 -851 3 -905 5 -953 22 -121 44 -215 137 -254 251
-27 78 -37 224 -20 296 37 156 160 278 327 324 38 10 231 13 926 14 864 1 877
1 897 -19z m-335 -1162 c-8 -65 -39 -163 -56 -173 -5 -4 -9 42 -9 114 l0 121
36 0 36 0 -7 -62z"/>
<path d="M3144 2481 c-63 -38 -102 -119 -89 -184 17 -79 97 -147 175 -147 78
0 158 68 175 147 13 66 -32 155 -96 188 -40 21 -127 19 -165 -4z"/>
</g>
</svg>
